<svg id="Layer_1" data-name="Layer 1" xmlns="http://www.w3.org/2000/svg" viewBox="0 0 256 477.43"><defs><style>.cls-1{fill:#0da991;}</style></defs><path class="cls-1" d="M9.13,6C3.08,10,0,15.18,0,21.49V455.33c0,5.5,3.15,10.5,9.46,15.13s14,7,23.19,7a39.73,39.73,0,0,0,23.24-7C62.56,465.87,66,460.83,66,455.33V21.52C66,15.18,62.72,10.05,56.21,6S41.87,0,32.65,0C23,0,15.19,2,9.13,6ZM198.86,178.3l-88.3,55.35c-4,3.7-5.66,9.32-4.93,17s4.2,14.85,10.43,21.69,13.25,11.19,21.25,13,13.87.82,17.82-2.85l34.92-21.77V455.33c0,5.5,3,10.5,9.17,15.13,6,4.65,13.66,7,22.88,7s17.17-2.32,23.84-7S256,460.83,256,455.33V193.72c0-6.35-3.28-11.47-9.74-15.42s-14.51-6-24.16-6S204.76,174.27,198.86,178.3Z"/></svg>